<svg xmlns="http://www.w3.org/2000/svg" xmlns:xlink="http://www.w3.org/1999/xlink" width="160" zoomAndPan="magnify" viewBox="0 0 120 36.750001" height="49" preserveAspectRatio="xMidYMid meet" version="1.0"><defs><clipPath id="71f7d66777"><path d="M 27.226562 8.214844 L 36 8.214844 L 36 28.328125 L 27.226562 28.328125 Z M 27.226562 8.214844 " clip-rule="nonzero"/></clipPath><clipPath id="b7b30ab240"><path d="M 33 16 L 41 16 L 41 28.328125 L 33 28.328125 Z M 33 16 " clip-rule="nonzero"/></clipPath></defs><g clip-path="url(#71f7d66777)"><path fill="var(--buy-logo-font-color)" d="M 35.796875 14.417969 C 35.855469 11.464844 34.195312 8.890625 33.332031 8.273438 C 33.328125 8.269531 33.25 8.226562 33.257812 8.34375 C 33.257812 8.34375 33.253906 8.34375 33.253906 8.347656 C 33.164062 13.925781 30.320312 15.429688 28.777344 17.476562 C 25.34375 22.019531 28.207031 27.210938 31.917969 28.191406 C 31.980469 28.207031 32.152344 28.257812 32.480469 28.328125 C 32.648438 28.363281 32.699219 28.214844 32.574219 28 C 32.128906 27.222656 31.339844 25.910156 31.183594 24.222656 C 30.828125 20.308594 35.726562 17.855469 35.796875 14.417969 Z M 35.796875 14.417969 " fill-opacity="1" fill-rule="nonzero"/></g><g clip-path="url(#b7b30ab240)"><path fill="#008cd6" d="M 37.664062 16.3125 C 37.636719 16.289062 37.59375 16.292969 37.59375 16.328125 C 37.511719 17.039062 36.785156 18.511719 35.824219 19.886719 C 32.597656 24.527344 34.222656 26.632812 35.488281 28.089844 C 35.71875 28.363281 35.835938 28.304688 35.957031 28.109375 C 36.070312 27.925781 36.246094 27.695312 36.992188 27.335938 C 37.105469 27.28125 39.925781 25.773438 40.230469 22.339844 C 40.523438 19.019531 38.414062 16.921875 37.664062 16.3125 Z M 37.664062 16.3125 " fill-opacity="1" fill-rule="nonzero"/></g><path fill="var(--buy-logo-font-color)" d="M 54.429688 15.464844 L 54.429688 27.675781 L 51.828125 27.675781 L 51.828125 22.742188 L 46.835938 22.742188 L 46.835938 27.675781 L 44.171875 27.675781 L 44.171875 15.464844 L 46.835938 15.464844 L 46.835938 20.398438 L 51.828125 20.398438 L 51.828125 15.464844 Z M 54.429688 15.464844 " fill-opacity="1" fill-rule="nonzero"/><path fill="var(--buy-logo-font-color)" d="M 66.441406 15.464844 L 66.441406 17.878906 L 62.710938 17.878906 L 62.710938 27.675781 L 60.039062 27.675781 L 60.039062 17.878906 L 56.375 17.878906 L 56.375 15.464844 Z M 66.441406 15.464844 " fill-opacity="1" fill-rule="nonzero"/><path fill="var(--buy-logo-font-color)" d="M 75.90625 27.6875 L 72.851562 23.441406 L 69.820312 27.667969 L 66.859375 27.675781 L 71.351562 21.441406 L 67.109375 15.464844 L 70.070312 15.464844 L 78.855469 27.6875 Z M 75.90625 27.6875 " fill-opacity="1" fill-rule="evenodd"/><path fill="#008cd6" d="M 73.679688 18.199219 L 75.148438 20.25 L 78.621094 15.464844 L 75.675781 15.464844 Z M 73.679688 18.199219 " fill-opacity="1" fill-rule="nonzero"/></svg>