<?xml version="1.0" encoding="utf-8"?>
<svg xmlns="http://www.w3.org/2000/svg" width="36" height="36" viewBox="0 0 220 190">
  <path fill="var(--main-font-color)" class="st0" d="M 67.47 153.803 L 65.86 155.412 C 62.522 158.751 58.954 161.915 55.274 164.851 L 51.014 168.19 C 50.728 168.419 50.382 168.535 50.036 168.535 C 49.75 168.535 49.461 168.477 49.228 168.306 C 48.654 167.96 48.367 167.327 48.537 166.636 L 50.206 159.097 C 52.051 150.925 51.647 142.352 49.058 134.351 L 48.137 131.591 C 47.099 128.367 45.835 125.205 44.512 122.094 L 24.885 75.768 L 22.759 69.441 C 22.125 67.485 21.662 65.471 21.434 63.397 L 21.09 60.233 C 20.11 51.31 23.161 42.561 29.49 36.235 L 31.101 34.624 C 34.439 31.283 38.007 28.12 41.691 25.186 L 45.947 21.846 C 46.468 21.447 47.159 21.388 47.733 21.734 C 48.307 22.08 48.594 22.712 48.424 23.403 L 46.755 30.938 C 44.915 39.111 45.315 47.688 47.903 55.686 L 48.824 58.445 C 49.86 61.673 51.125 64.836 52.451 67.942 L 72.134 114.268 L 74.261 120.599 C 74.894 122.556 75.357 124.571 75.586 126.641 L 75.93 129.805 C 76.851 138.668 73.799 147.474 67.47 153.803 Z M 133.879 168.996 L 131.812 171.066 C 127.606 175.267 123.117 179.297 118.459 182.924 L 112.934 187.295 C 112.646 187.523 112.243 187.641 111.898 187.641 C 111.612 187.641 111.265 187.523 110.977 187.352 C 110.345 186.95 110.058 186.258 110.229 185.567 L 112.415 175.842 C 114.716 165.483 114.201 154.667 110.92 144.596 L 109.771 141.088 C 108.446 136.999 106.89 132.973 105.166 129.059 L 80.36 70.649 L 77.713 62.705 C 76.908 60.29 76.335 57.701 76.048 55.17 L 75.586 51.14 C 74.321 39.974 78.176 29.041 86.06 21.043 L 88.129 18.969 C 92.33 14.768 96.817 10.743 101.482 7.118 L 107.007 2.741 C 107.58 2.283 108.33 2.225 108.962 2.629 C 109.595 3.028 109.882 3.719 109.713 4.411 L 107.522 14.135 C 105.223 24.495 105.739 35.314 109.021 45.386 L 110.169 48.895 C 111.494 52.925 113.046 57.011 114.775 60.924 L 139.58 119.393 L 142.223 127.332 C 143.031 129.75 143.606 132.34 143.892 134.871 L 144.354 138.897 C 145.621 150.064 141.765 161.053 133.879 168.996 Z M 190.503 153.803 L 188.893 155.412 C 185.558 158.751 181.991 161.915 178.306 164.851 L 174.047 168.19 C 173.76 168.419 173.414 168.535 173.069 168.535 C 172.782 168.535 172.493 168.477 172.266 168.306 C 171.69 167.96 171.399 167.327 171.575 166.636 L 173.245 159.097 C 175.084 150.925 174.679 142.352 172.09 134.351 L 171.17 131.591 C 170.133 128.367 168.868 125.205 167.544 122.094 L 147.863 75.768 L 145.737 69.441 C 145.104 67.485 144.643 65.471 144.414 63.397 L 144.067 60.233 C 143.089 51.31 146.137 42.561 152.469 36.235 L 154.081 34.624 C 157.419 31.283 160.988 28.12 164.668 25.186 L 168.925 21.846 C 169.442 21.447 170.133 21.388 170.713 21.734 C 171.286 22.08 171.575 22.712 171.399 23.403 L 169.735 30.938 C 167.89 39.111 168.293 47.688 170.882 55.686 L 171.802 58.445 C 172.84 61.673 174.106 64.836 175.429 67.942 L 195.108 114.268 L 197.241 120.599 C 197.874 122.556 198.331 124.571 198.565 126.641 L 198.911 129.805 C 199.89 138.668 196.837 147.474 190.503 153.803 Z" style="paint-order: stroke; stroke: rgb(79, 70, 218);"/>
</svg>