<?xml version="1.0" encoding="UTF-8"?>
<svg xmlns="http://www.w3.org/2000/svg" xmlns:xlink="http://www.w3.org/1999/xlink" width="34px" height="34px" viewBox="0 0 34 34" version="1.1">
<g id="surface1">
<path style=" stroke:none;fill-rule:evenodd;fill:rgb(24.313726%,30.19608%,77.64706%);fill-opacity:1;" d="M 15.148438 0.0546875 C 14.277344 0.179688 13.871094 0.253906 13.234375 0.410156 C 6.742188 2.003906 2.003906 6.746094 0.40625 13.242188 C 0.25 13.886719 0.171875 14.320312 0.0507812 15.1875 C -0.0078125 15.636719 -0.0234375 18.285156 0.0351562 18.683594 C 0.0546875 18.8125 0.09375 19.089844 0.121094 19.296875 C 0.765625 24.203125 3.878906 28.914062 8.21875 31.542969 C 10.335938 32.824219 12.820312 33.664062 15.386719 33.96875 C 15.738281 34.007812 18.261719 34.007812 18.613281 33.96875 C 24.597656 33.261719 29.59375 29.800781 32.210938 24.546875 C 33.011719 22.945312 33.722656 20.707031 33.882812 19.296875 C 33.894531 19.183594 33.925781 18.945312 33.953125 18.769531 C 34.007812 18.378906 34.019531 15.691406 33.964844 15.316406 C 33.945312 15.1875 33.90625 14.910156 33.878906 14.703125 C 33.171875 9.300781 29.554688 4.289062 24.582031 1.804688 C 22.75 0.890625 20.949219 0.34375 18.8125 0.0507812 C 18.292969 -0.0195312 15.652344 -0.015625 15.148438 0.0546875 M 18.660156 1.546875 C 27.898438 2.546875 34.199219 11.382812 32.144531 20.457031 C 30.054688 29.6875 20.140625 34.933594 11.332031 31.464844 C 3.8125 28.503906 -0.203125 20.269531 2.109375 12.5625 C 4.261719 5.386719 11.242188 0.742188 18.660156 1.546875 M 16.691406 3.648438 C 16.488281 3.75 16.339844 3.976562 16.289062 4.257812 C 16.261719 4.414062 16.253906 6.039062 16.253906 9.769531 C 16.253906 15.882812 16.285156 15.347656 15.875 15.894531 C 15.648438 16.199219 15.511719 16.492188 15.464844 16.765625 C 15.3125 17.691406 15.535156 17.414062 12.667969 20.289062 C 9.988281 22.976562 9.996094 22.964844 9.996094 23.332031 C 9.996094 23.746094 10.25 24.003906 10.660156 24.003906 C 11.03125 24.003906 10.988281 24.039062 13.632812 21.40625 C 16.582031 18.46875 16.351562 18.65625 17.066406 18.5625 C 18.46875 18.378906 18.992188 17.058594 18.125 15.894531 C 17.714844 15.351562 17.746094 15.867188 17.746094 9.746094 C 17.746094 6.03125 17.738281 4.414062 17.710938 4.257812 C 17.636719 3.84375 17.355469 3.570312 17 3.570312 C 16.90625 3.570312 16.785156 3.601562 16.691406 3.648438 "/>
<path style=" stroke:none;fill-rule:evenodd;fill:rgb(98.823529%,98.823529%,98.823529%);fill-opacity:1;" d="M 0.00390625 7.742188 C 0.0078125 14.570312 0.0117188 15.445312 0.0546875 15.148438 C 0.179688 14.277344 0.253906 13.875 0.40625 13.242188 C 2.003906 6.746094 6.742188 2.003906 13.234375 0.410156 C 13.871094 0.253906 14.277344 0.179688 15.148438 0.0546875 C 15.445312 0.0117188 14.570312 0.0078125 7.742188 0.00390625 L 0 0 L 0.00390625 7.742188 M 18.851562 0.0546875 C 20.507812 0.289062 21.746094 0.613281 23.238281 1.199219 C 28.886719 3.425781 33.097656 8.777344 33.886719 14.738281 C 33.914062 14.964844 33.953125 15.222656 33.964844 15.316406 C 33.980469 15.410156 33.992188 12.003906 33.996094 7.742188 L 34 0 L 26.257812 0.00390625 C 19.429688 0.0078125 18.554688 0.0117188 18.851562 0.0546875 M 15.910156 1.496094 C 6.816406 2.128906 0.15625 10.5625 1.667969 19.53125 C 3.21875 28.742188 12.394531 34.511719 21.355469 31.910156 C 29.617188 29.515625 34.367188 20.75 31.875 12.503906 C 29.777344 5.578125 23.132812 0.996094 15.910156 1.496094 M 17.308594 3.648438 C 17.511719 3.75 17.660156 3.976562 17.710938 4.257812 C 17.738281 4.414062 17.746094 6.03125 17.746094 9.746094 C 17.746094 15.867188 17.714844 15.351562 18.125 15.894531 C 18.992188 17.058594 18.46875 18.378906 17.066406 18.5625 C 16.351562 18.65625 16.582031 18.46875 13.632812 21.40625 C 10.988281 24.039062 11.03125 24.003906 10.660156 24.003906 C 10.25 24.003906 9.996094 23.746094 9.996094 23.332031 C 9.996094 22.964844 9.988281 22.976562 12.667969 20.289062 C 15.535156 17.414062 15.3125 17.691406 15.464844 16.765625 C 15.511719 16.492188 15.648438 16.199219 15.875 15.894531 C 16.285156 15.347656 16.253906 15.882812 16.253906 9.769531 C 16.253906 6.039062 16.261719 4.414062 16.289062 4.257812 C 16.363281 3.84375 16.644531 3.570312 17 3.570312 C 17.09375 3.570312 17.214844 3.601562 17.308594 3.648438 M 0.00390625 26.257812 L 0 34 L 7.777344 33.996094 C 12.054688 33.992188 15.464844 33.980469 15.351562 33.964844 C 15.238281 33.953125 15 33.921875 14.824219 33.898438 C 12.054688 33.550781 8.878906 32.203125 6.527344 30.375 C 3.128906 27.734375 0.671875 23.476562 0.113281 19.261719 C 0.0859375 19.035156 0.046875 18.777344 0.0351562 18.683594 C 0.0195312 18.589844 0.0078125 21.996094 0.00390625 26.257812 M 33.957031 18.707031 C 33.457031 23.25 31.035156 27.605469 27.472656 30.375 C 25.121094 32.203125 21.945312 33.550781 19.175781 33.898438 C 19 33.921875 18.761719 33.953125 18.648438 33.964844 C 18.535156 33.980469 21.945312 33.992188 26.222656 33.996094 L 34 34 L 34 26.265625 C 34 22.011719 33.996094 18.53125 33.988281 18.53125 C 33.980469 18.53125 33.964844 18.609375 33.957031 18.707031 "/>
</g>
</svg>
